<svg width="522" height="73" viewBox="0 0 522 73" fill="none" xmlns="http://www.w3.org/2000/svg">
<path d="M119.648 36.472H116.56V39.8H115.344V36.472H112.256V35.256H115.344V31.928H116.56V35.256H119.648V36.472Z" fill="white"/>
<path d="M147.056 40.056V41.4H139.664V40.328L143.664 36.056C144.283 35.3947 144.704 34.872 144.928 34.488C145.152 34.0934 145.264 33.6987 145.264 33.304C145.264 32.6854 145.056 32.2107 144.64 31.88C144.224 31.5387 143.637 31.368 142.88 31.368C141.856 31.368 140.901 31.6667 140.016 32.264V30.856C140.901 30.3334 141.877 30.072 142.944 30.072C143.701 30.072 144.363 30.2 144.928 30.456C145.504 30.7014 145.947 31.0534 146.256 31.512C146.565 31.9707 146.72 32.504 146.72 33.112C146.72 33.6774 146.581 34.248 146.304 34.824C146.037 35.4 145.637 35.96 145.104 36.504L141.664 40.056H147.056Z" fill="white"/>
<circle cx="177.6" cy="37.6" r="20" fill="#2A2929"/>
<path d="M177.401 41.592C176.324 41.592 175.401 41.352 174.633 40.872C173.876 40.392 173.295 39.72 172.889 38.856C172.495 37.992 172.297 36.984 172.297 35.832C172.297 34.68 172.495 33.672 172.889 32.808C173.295 31.944 173.876 31.272 174.633 30.792C175.401 30.312 176.324 30.072 177.401 30.072C178.479 30.072 179.396 30.312 180.153 30.792C180.921 31.272 181.503 31.944 181.897 32.808C182.303 33.672 182.505 34.68 182.505 35.832C182.505 36.984 182.303 37.992 181.897 38.856C181.503 39.72 180.921 40.392 180.153 40.872C179.396 41.352 178.479 41.592 177.401 41.592ZM177.401 40.312C178.596 40.312 179.492 39.912 180.089 39.112C180.687 38.3014 180.985 37.208 180.985 35.832C180.985 34.456 180.687 33.368 180.089 32.568C179.492 31.7574 178.596 31.352 177.401 31.352C176.207 31.352 175.311 31.7574 174.713 32.568C174.116 33.368 173.817 34.456 173.817 35.832C173.817 37.208 174.116 38.3014 174.713 39.112C175.311 39.912 176.207 40.312 177.401 40.312Z" fill="white"/>
<circle cx="217.6" cy="37.6" r="20" fill="#2A2929"/>
<path d="M217.601 41.592C216.524 41.592 215.601 41.352 214.833 40.872C214.076 40.392 213.495 39.72 213.089 38.856C212.695 37.992 212.497 36.984 212.497 35.832C212.497 34.68 212.695 33.672 213.089 32.808C213.495 31.944 214.076 31.272 214.833 30.792C215.601 30.312 216.524 30.072 217.601 30.072C218.679 30.072 219.596 30.312 220.353 30.792C221.121 31.272 221.703 31.944 222.097 32.808C222.503 33.672 222.705 34.68 222.705 35.832C222.705 36.984 222.503 37.992 222.097 38.856C221.703 39.72 221.121 40.392 220.353 40.872C219.596 41.352 218.679 41.592 217.601 41.592ZM217.601 40.312C218.796 40.312 219.692 39.912 220.289 39.112C220.887 38.3014 221.185 37.208 221.185 35.832C221.185 34.456 220.887 33.368 220.289 32.568C219.692 31.7574 218.796 31.352 217.601 31.352C216.407 31.352 215.511 31.7574 214.913 32.568C214.316 33.368 214.017 34.456 214.017 35.832C214.017 37.208 214.316 38.3014 214.913 39.112C215.511 39.912 216.407 40.312 217.601 40.312Z" fill="white"/>
<path d="M408.448 36.472H405.36V39.8H404.144V36.472H401.056V35.256H404.144V31.928H405.36V35.256H408.448V36.472Z" fill="white"/>
<path d="M293.656 40.472V41.8H286.264V40.472H289.56V32.472L287.32 33.624H287.256L286.968 32.712V32.648L289.912 30.664H290.968V40.472H293.656Z" fill="white"/>
<circle cx="372.2" cy="38" r="12" fill="#A5D8FF"/>
<path d="M371.901 40.7152C371.254 40.7152 370.701 40.5712 370.24 40.2832C369.786 39.9952 369.437 39.592 369.194 39.0736C368.957 38.5552 368.838 37.9504 368.838 37.2592C368.838 36.568 368.957 35.9632 369.194 35.4448C369.437 34.9264 369.786 34.5232 370.24 34.2352C370.701 33.9472 371.254 33.8032 371.901 33.8032C372.547 33.8032 373.098 33.9472 373.552 34.2352C374.013 34.5232 374.362 34.9264 374.598 35.4448C374.842 35.9632 374.963 36.568 374.963 37.2592C374.963 37.9504 374.842 38.5552 374.598 39.0736C374.362 39.592 374.013 39.9952 373.552 40.2832C373.098 40.5712 372.547 40.7152 371.901 40.7152ZM371.901 39.9472C372.618 39.9472 373.155 39.7072 373.514 39.2272C373.872 38.7408 374.051 38.0848 374.051 37.2592C374.051 36.4336 373.872 35.7808 373.514 35.3008C373.155 34.8144 372.618 34.5712 371.901 34.5712C371.184 34.5712 370.646 34.8144 370.288 35.3008C369.93 35.7808 369.75 36.4336 369.75 37.2592C369.75 38.0848 369.93 38.7408 370.288 39.2272C370.646 39.7072 371.184 39.9472 371.901 39.9472Z" fill="black"/>
<circle cx="316.2" cy="38" r="12" fill="#A5D8FF"/>
<path d="M315.901 40.7152C315.254 40.7152 314.701 40.5712 314.24 40.2832C313.786 39.9952 313.437 39.592 313.194 39.0736C312.957 38.5552 312.838 37.9504 312.838 37.2592C312.838 36.568 312.957 35.9632 313.194 35.4448C313.437 34.9264 313.786 34.5232 314.24 34.2352C314.701 33.9472 315.254 33.8032 315.901 33.8032C316.547 33.8032 317.098 33.9472 317.552 34.2352C318.013 34.5232 318.362 34.9264 318.598 35.4448C318.842 35.9632 318.963 36.568 318.963 37.2592C318.963 37.9504 318.842 38.5552 318.598 39.0736C318.362 39.592 318.013 39.9952 317.552 40.2832C317.098 40.5712 316.547 40.7152 315.901 40.7152ZM315.901 39.9472C316.618 39.9472 317.155 39.7072 317.514 39.2272C317.872 38.7408 318.051 38.0848 318.051 37.2592C318.051 36.4336 317.872 35.7808 317.514 35.3008C317.155 34.8144 316.618 34.5712 315.901 34.5712C315.184 34.5712 314.646 34.8144 314.288 35.3008C313.93 35.7808 313.75 36.4336 313.75 37.2592C313.75 38.0848 313.93 38.7408 314.288 39.2272C314.646 39.7072 315.184 39.9472 315.901 39.9472Z" fill="black"/>
<circle cx="344.2" cy="38" r="20" fill="#2A2929"/>
<path d="M344.666 41.992C343.589 41.992 342.672 41.752 341.914 41.272C341.168 40.792 340.602 40.12 340.218 39.256C339.845 38.392 339.658 37.384 339.658 36.232C339.658 35.08 339.845 34.072 340.218 33.208C340.602 32.344 341.168 31.672 341.914 31.192C342.672 30.712 343.589 30.472 344.666 30.472C345.253 30.472 345.818 30.5467 346.362 30.696C346.906 30.8347 347.402 31.0427 347.85 31.32V32.92H347.786C347.434 32.5787 346.992 32.3067 346.458 32.104C345.925 31.8907 345.344 31.784 344.714 31.784C343.498 31.784 342.602 32.1787 342.026 32.968C341.461 33.7573 341.178 34.8453 341.178 36.232C341.178 37.6293 341.461 38.7227 342.026 39.512C342.602 40.3013 343.493 40.696 344.698 40.696C345.306 40.696 345.877 40.5947 346.41 40.392C346.954 40.1893 347.413 39.9067 347.786 39.544H347.85V41.144C347.402 41.4213 346.906 41.6347 346.362 41.784C345.818 41.9227 345.253 41.992 344.666 41.992Z" fill="white"/>
<path d="M262.064 37.8C262.224 37.4587 262.379 37.16 262.528 36.904C262.688 36.648 262.843 36.4347 262.992 36.264H253.664V35.592H262.992C262.843 35.4107 262.688 35.192 262.528 34.936C262.379 34.68 262.224 34.3867 262.064 34.056H262.624C263.296 34.8347 264 35.4107 264.736 35.784V36.072C264 36.4347 263.296 37.0107 262.624 37.8H262.064Z" fill="white"/>
<path d="M8.656 40.072V41.4H1.264V40.072H4.56V32.072L2.32 33.224H2.256L1.968 32.312V32.248L4.912 30.264H5.968V40.072H8.656Z" fill="white"/>
<circle cx="53" cy="61" r="12" fill="#A5D8FF"/>
<path d="M55.6409 57.3184V64H54.7961V60.9088H51.2057V64H50.3609V57.3184H51.2057V60.1216H54.7961V57.3184H55.6409Z" fill="black"/>
<circle cx="53.2" cy="12" r="12" fill="#A5D8FF"/>
<path d="M55.6409 8.3184V15H54.7961V11.9088H51.2057V15H50.3609V8.3184H51.2057V11.1216H54.7961V8.3184H55.6409Z" fill="black"/>
<circle cx="78" cy="36" r="12" fill="#A5D8FF"/>
<path d="M79.8409 31.9184V38.6H78.9961V35.5088H75.4057V38.6H74.5609V31.9184H75.4057V34.7216H78.9961V31.9184H79.8409Z" fill="black"/>
<circle cx="29" cy="36" r="12" fill="#A5D8FF"/>
<path d="M30.8409 31.9184V38.6H29.9961V35.5088H26.4057V38.6H25.5609V31.9184H26.4057V34.7216H29.9961V31.9184H30.8409Z" fill="black"/>
<circle cx="53.4" cy="35.6" r="20" fill="#2A2929"/>
<path d="M53.2662 39.592C52.1888 39.592 51.2715 39.352 50.5142 38.872C49.7675 38.392 49.2022 37.72 48.8182 36.856C48.4448 35.992 48.2582 34.984 48.2582 33.832C48.2582 32.68 48.4448 31.672 48.8182 30.808C49.2022 29.944 49.7675 29.272 50.5142 28.792C51.2715 28.312 52.1888 28.072 53.2662 28.072C53.8528 28.072 54.4182 28.1466 54.9622 28.296C55.5062 28.4346 56.0022 28.6426 56.4502 28.92V30.52H56.3862C56.0342 30.1786 55.5915 29.9066 55.0582 29.704C54.5248 29.4906 53.9435 29.384 53.3142 29.384C52.0982 29.384 51.2022 29.7786 50.6262 30.568C50.0608 31.3573 49.7782 32.4453 49.7782 33.832C49.7782 35.2293 50.0608 36.3226 50.6262 37.112C51.2022 37.9013 52.0928 38.296 53.2982 38.296C53.9062 38.296 54.4768 38.1946 55.0102 37.992C55.5542 37.7893 56.0128 37.5066 56.3862 37.144H56.4502V38.744C56.0022 39.0213 55.5062 39.2346 54.9622 39.384C54.4182 39.5226 53.8528 39.592 53.2662 39.592Z" fill="white"/>
<path d="M430.656 39.456V40.8H423.264V39.728L427.264 35.456C427.883 34.7947 428.304 34.272 428.528 33.888C428.752 33.4933 428.864 33.0987 428.864 32.704C428.864 32.0853 428.656 31.6107 428.24 31.28C427.824 30.9387 427.237 30.768 426.48 30.768C425.456 30.768 424.501 31.0667 423.616 31.664V30.256C424.501 29.7333 425.477 29.472 426.544 29.472C427.301 29.472 427.963 29.6 428.528 29.856C429.104 30.1013 429.547 30.4533 429.856 30.912C430.165 31.3707 430.32 31.904 430.32 32.512C430.32 33.0773 430.181 33.648 429.904 34.224C429.637 34.8 429.237 35.36 428.704 35.904L425.264 39.456H430.656Z" fill="white"/>
<circle cx="509.2" cy="37" r="12" fill="#A5D8FF"/>
<path d="M511.041 32.9184V39.6H510.196V36.5088H506.606V39.6H505.761V32.9184H506.606V35.7216H510.196V32.9184H511.041Z" fill="black"/>
<circle cx="453.2" cy="37" r="12" fill="#A5D8FF"/>
<path d="M455.041 32.9184V39.6H454.196V36.5088H450.606V39.6H449.761V32.9184H450.606V35.7216H454.196V32.9184H455.041Z" fill="black"/>
<circle cx="481.2" cy="37" r="20" fill="#2A2929"/>
<path d="M480.801 40.992C479.724 40.992 478.801 40.752 478.033 40.272C477.276 39.792 476.695 39.12 476.289 38.256C475.895 37.392 475.697 36.384 475.697 35.232C475.697 34.08 475.895 33.072 476.289 32.208C476.695 31.344 477.276 30.672 478.033 30.192C478.801 29.712 479.724 29.472 480.801 29.472C481.879 29.472 482.796 29.712 483.553 30.192C484.321 30.672 484.903 31.344 485.297 32.208C485.703 33.072 485.905 34.08 485.905 35.232C485.905 36.384 485.703 37.392 485.297 38.256C484.903 39.12 484.321 39.792 483.553 40.272C482.796 40.752 481.879 40.992 480.801 40.992ZM480.801 39.712C481.996 39.712 482.892 39.312 483.489 38.512C484.087 37.7013 484.385 36.608 484.385 35.232C484.385 33.856 484.087 32.768 483.489 31.968C482.892 31.1573 481.996 30.752 480.801 30.752C479.607 30.752 478.711 31.1573 478.113 31.968C477.516 32.768 477.217 33.856 477.217 35.232C477.217 36.608 477.516 37.7013 478.113 38.512C478.711 39.312 479.607 39.712 480.801 39.712Z" fill="white"/>
</svg>
