<svg width="292" height="40" viewBox="0 0 292 40" fill="none" xmlns="http://www.w3.org/2000/svg">
<circle cx="176" cy="20" r="20" fill="#2A2929"/>
<path d="M175.261 12.664V23.8H173.853L167.869 15.208V23.8H166.461V12.664H167.869L173.853 21.256V12.664H175.261ZM184.058 23.8L183.834 22.6C183.418 23.0587 182.964 23.4053 182.474 23.64C181.994 23.8747 181.45 23.992 180.842 23.992C180.084 23.992 179.471 23.7787 179.002 23.352C178.532 22.9147 178.298 22.3387 178.298 21.624C178.298 20.696 178.671 20.0133 179.418 19.576C180.164 19.1387 181.124 18.92 182.298 18.92C182.724 18.92 183.194 18.9467 183.706 19V18.424C183.706 17.848 183.546 17.3893 183.226 17.048C182.916 16.696 182.511 16.52 182.01 16.52C181.412 16.52 180.868 16.6 180.378 16.76C179.898 16.92 179.402 17.1707 178.89 17.512V16.152C179.391 15.8213 179.903 15.592 180.426 15.464C180.948 15.3253 181.546 15.256 182.218 15.256C183.071 15.256 183.764 15.528 184.298 16.072C184.842 16.616 185.114 17.336 185.114 18.232V21.944L185.466 23.8H184.058ZM181.13 22.808C181.642 22.808 182.1 22.7013 182.506 22.488C182.911 22.2747 183.311 21.9653 183.706 21.56V19.992H182.234C180.623 19.992 179.818 20.5093 179.818 21.544C179.818 21.928 179.94 22.2373 180.186 22.472C180.431 22.696 180.746 22.808 181.13 22.808Z" fill="white"/>
<path d="M145.456 22.472V23.8H138.064V22.472H141.36V14.472L139.12 15.624H139.056L138.768 14.712V14.648L141.712 12.664H142.768V22.472H145.456Z" fill="white"/>
<path d="M218.048 18.872H214.96V22.2H213.744V18.872H210.656V17.656H213.744V14.328H214.96V17.656H218.048V18.872Z" fill="white"/>
<circle cx="271.2" cy="20" r="20" fill="#2A2929"/>
<path d="M269.024 23.992C267.947 23.992 267.029 23.752 266.272 23.272C265.525 22.792 264.96 22.12 264.576 21.256C264.203 20.392 264.016 19.384 264.016 18.232C264.016 17.08 264.203 16.072 264.576 15.208C264.96 14.344 265.525 13.672 266.272 13.192C267.029 12.712 267.947 12.472 269.024 12.472C269.611 12.472 270.176 12.5467 270.72 12.696C271.264 12.8347 271.76 13.0427 272.208 13.32V14.92H272.144C271.792 14.5787 271.349 14.3067 270.816 14.104C270.283 13.8907 269.701 13.784 269.072 13.784C267.856 13.784 266.96 14.1787 266.384 14.968C265.819 15.7573 265.536 16.8453 265.536 18.232C265.536 19.6293 265.819 20.7227 266.384 21.512C266.96 22.3013 267.851 22.696 269.056 22.696C269.664 22.696 270.235 22.5947 270.768 22.392C271.312 22.1893 271.771 21.9067 272.144 21.544H272.208V23.144C271.76 23.4213 271.264 23.6347 270.72 23.784C270.176 23.9227 269.611 23.992 269.024 23.992ZM275.452 11.736H276.86V23.8H275.452V11.736Z" fill="white"/>
<path d="M240.656 22.472V23.8H233.264V22.472H236.56V14.472L234.32 15.624H234.256L233.968 14.712V14.648L236.912 12.664H237.968V22.472H240.656Z" fill="white"/>
<path d="M123.664 20.2C123.824 19.8587 123.979 19.56 124.128 19.304C124.288 19.048 124.443 18.8347 124.592 18.664H115.264V17.992H124.592C124.443 17.8107 124.288 17.592 124.128 17.336C123.979 17.08 123.824 16.7867 123.664 16.456H124.224C124.896 17.2347 125.6 17.8107 126.336 18.184V18.472C125.6 18.8347 124.896 19.4107 124.224 20.2H123.664Z" fill="white"/>
<path d="M8.656 22.472V23.8H1.264V22.472H4.56V14.472L2.32 15.624H2.256L1.968 14.712V14.648L4.912 12.664H5.968V22.472H8.656Z" fill="white"/>
<circle cx="79.2" cy="20" r="20" fill="#2A2929"/>
<path d="M77.024 23.992C75.9467 23.992 75.0293 23.752 74.272 23.272C73.5253 22.792 72.96 22.12 72.576 21.256C72.2027 20.392 72.016 19.384 72.016 18.232C72.016 17.08 72.2027 16.072 72.576 15.208C72.96 14.344 73.5253 13.672 74.272 13.192C75.0293 12.712 75.9467 12.472 77.024 12.472C77.6107 12.472 78.176 12.5467 78.72 12.696C79.264 12.8347 79.76 13.0427 80.208 13.32V14.92H80.144C79.792 14.5787 79.3493 14.3067 78.816 14.104C78.2827 13.8907 77.7013 13.784 77.072 13.784C75.856 13.784 74.96 14.1787 74.384 14.968C73.8187 15.7573 73.536 16.8453 73.536 18.232C73.536 19.6293 73.8187 20.7227 74.384 21.512C74.96 22.3013 75.8507 22.696 77.056 22.696C77.664 22.696 78.2347 22.5947 78.768 22.392C79.312 22.1893 79.7707 21.9067 80.144 21.544H80.208V23.144C79.76 23.4213 79.264 23.6347 78.72 23.784C78.176 23.9227 77.6107 23.992 77.024 23.992ZM83.4516 11.736H84.8596V23.8H83.4516V11.736Z" fill="white"/>
<circle cx="39.2" cy="20" r="20" fill="#2A2929"/>
<path d="M39.2609 12.664V23.8H37.8529L31.8689 15.208V23.8H30.4609V12.664H31.8689L37.8529 21.256V12.664H39.2609ZM48.0578 23.8L47.8338 22.6C47.4178 23.0587 46.9645 23.4053 46.4738 23.64C45.9938 23.8747 45.4498 23.992 44.8418 23.992C44.0845 23.992 43.4711 23.7787 43.0018 23.352C42.5325 22.9147 42.2978 22.3387 42.2978 21.624C42.2978 20.696 42.6711 20.0133 43.4178 19.576C44.1645 19.1387 45.1245 18.92 46.2978 18.92C46.7245 18.92 47.1938 18.9467 47.7058 19V18.424C47.7058 17.848 47.5458 17.3893 47.2258 17.048C46.9165 16.696 46.5111 16.52 46.0098 16.52C45.4125 16.52 44.8685 16.6 44.3778 16.76C43.8978 16.92 43.4018 17.1707 42.8898 17.512V16.152C43.3911 15.8213 43.9031 15.592 44.4258 15.464C44.9485 15.3253 45.5458 15.256 46.2178 15.256C47.0711 15.256 47.7645 15.528 48.2978 16.072C48.8418 16.616 49.1138 17.336 49.1138 18.232V21.944L49.4658 23.8H48.0578ZM45.1298 22.808C45.6418 22.808 46.1005 22.7013 46.5058 22.488C46.9111 22.2747 47.3111 21.9653 47.7058 21.56V19.992H46.2338C44.6231 19.992 43.8178 20.5093 43.8178 21.544C43.8178 21.928 43.9405 22.2373 44.1858 22.472C44.4311 22.696 44.7458 22.808 45.1298 22.808Z" fill="white"/>
</svg>
