<svg width="536" height="69" viewBox="0 0 536 69" fill="none" xmlns="http://www.w3.org/2000/svg">
<path d="M119.648 36.472H116.56V39.8H115.344V36.472H112.256V35.256H115.344V31.928H116.56V35.256H119.648V36.472Z" fill="white"/>
<path d="M147.056 40.072V41.4H139.664V40.072H142.96V32.072L140.72 33.224H140.656L140.368 32.312V32.248L143.312 30.264H144.368V40.072H147.056Z" fill="white"/>
<circle cx="177.6" cy="37.6" r="20" fill="#2A2929"/>
<path d="M177.661 30.264V41.4H176.253L170.269 32.808V41.4H168.861V30.264H170.269L176.253 38.856V30.264H177.661ZM186.458 41.4L186.234 40.2C185.818 40.6587 185.364 41.0054 184.874 41.24C184.394 41.4747 183.85 41.592 183.242 41.592C182.484 41.592 181.871 41.3787 181.402 40.952C180.932 40.5147 180.698 39.9387 180.698 39.224C180.698 38.296 181.071 37.6134 181.818 37.176C182.564 36.7387 183.524 36.52 184.698 36.52C185.124 36.52 185.594 36.5467 186.106 36.6V36.024C186.106 35.448 185.946 34.9894 185.626 34.648C185.316 34.296 184.911 34.12 184.41 34.12C183.812 34.12 183.268 34.2 182.778 34.36C182.298 34.52 181.802 34.7707 181.29 35.112V33.752C181.791 33.4214 182.303 33.192 182.826 33.064C183.348 32.9254 183.946 32.856 184.618 32.856C185.471 32.856 186.164 33.128 186.698 33.672C187.242 34.216 187.514 34.936 187.514 35.832V39.544L187.866 41.4H186.458ZM183.53 40.408C184.042 40.408 184.5 40.3014 184.906 40.088C185.311 39.8747 185.711 39.5654 186.106 39.16V37.592H184.634C183.023 37.592 182.218 38.1094 182.218 39.144C182.218 39.528 182.34 39.8374 182.586 40.072C182.831 40.296 183.146 40.408 183.53 40.408Z" fill="white"/>
<circle cx="217.6" cy="37.6" r="20" fill="#2A2929"/>
<path d="M216.224 41.592C215.147 41.592 214.229 41.352 213.472 40.872C212.725 40.392 212.16 39.72 211.776 38.856C211.403 37.992 211.216 36.984 211.216 35.832C211.216 34.68 211.403 33.672 211.776 32.808C212.16 31.944 212.725 31.272 213.472 30.792C214.229 30.312 215.147 30.072 216.224 30.072C216.811 30.072 217.376 30.1467 217.92 30.296C218.464 30.4347 218.96 30.6427 219.408 30.92V32.52H219.344C218.992 32.1787 218.549 31.9067 218.016 31.704C217.483 31.4907 216.901 31.384 216.272 31.384C215.056 31.384 214.16 31.7787 213.584 32.568C213.019 33.3574 212.736 34.4454 212.736 35.832C212.736 37.2294 213.019 38.3227 213.584 39.112C214.16 39.9014 215.051 40.296 216.256 40.296C216.864 40.296 217.435 40.1947 217.968 39.992C218.512 39.7894 218.971 39.5067 219.344 39.144H219.408V40.744C218.96 41.0214 218.464 41.2347 217.92 41.384C217.376 41.5227 216.811 41.592 216.224 41.592ZM222.652 29.336H224.06V41.4H222.652V29.336Z" fill="white"/>
<path d="M408.448 36.472H405.36V39.8H404.144V36.472H401.056V35.256H404.144V31.928H405.36V35.256H408.448V36.472Z" fill="white"/>
<path d="M433.456 40.072V41.4H426.064V40.072H429.36V32.072L427.12 33.224H427.056L426.768 32.312V32.248L429.712 30.264H430.768V40.072H433.456Z" fill="white"/>
<circle cx="464" cy="37.6" r="20" fill="#2A2929"/>
<path d="M464.061 30.264V41.4H462.653L456.669 32.808V41.4H455.261V30.264H456.669L462.653 38.856V30.264H464.061ZM472.858 41.4L472.634 40.2C472.218 40.6587 471.764 41.0054 471.274 41.24C470.794 41.4747 470.25 41.592 469.642 41.592C468.884 41.592 468.271 41.3787 467.802 40.952C467.332 40.5147 467.098 39.9387 467.098 39.224C467.098 38.296 467.471 37.6134 468.218 37.176C468.964 36.7387 469.924 36.52 471.098 36.52C471.524 36.52 471.994 36.5467 472.506 36.6V36.024C472.506 35.448 472.346 34.9894 472.026 34.648C471.716 34.296 471.311 34.12 470.81 34.12C470.212 34.12 469.668 34.2 469.178 34.36C468.698 34.52 468.202 34.7707 467.69 35.112V33.752C468.191 33.4214 468.703 33.192 469.226 33.064C469.748 32.9254 470.346 32.856 471.018 32.856C471.871 32.856 472.564 33.128 473.098 33.672C473.642 34.216 473.914 34.936 473.914 35.832V39.544L474.266 41.4H472.858ZM469.93 40.408C470.442 40.408 470.9 40.3014 471.306 40.088C471.711 39.8747 472.111 39.5654 472.506 39.16V37.592H471.034C469.423 37.592 468.618 38.1094 468.618 39.144C468.618 39.528 468.74 39.8374 468.986 40.072C469.231 40.296 469.546 40.408 469.93 40.408Z" fill="white"/>
<path d="M293.456 40.072V41.4H286.064V40.072H289.36V32.072L287.12 33.224H287.056L286.768 32.312V32.248L289.712 30.264H290.768V40.072H293.456Z" fill="white"/>
<circle cx="324" cy="37.6" r="20" fill="#2A2929"/>
<path d="M321.477 38.456H316.117L314.981 41.4H313.573L317.861 30.264H319.813L324.101 41.4H322.613L321.477 38.456ZM321.013 37.256L318.805 31.496L316.581 37.256H321.013ZM333.561 33.032L333.209 34.888V40.856C333.209 42.264 332.884 43.3573 332.233 44.136C331.582 44.9146 330.617 45.304 329.337 45.304C328.622 45.304 328.036 45.2346 327.577 45.096C327.118 44.9573 326.644 44.68 326.153 44.264V42.84C326.676 43.2773 327.166 43.576 327.625 43.736C328.084 43.9066 328.654 43.992 329.337 43.992C330.158 43.992 330.772 43.7306 331.177 43.208C331.593 42.696 331.801 41.976 331.801 41.048V40.632C331.449 40.8666 331.092 41.0373 330.729 41.144C330.377 41.24 329.956 41.288 329.465 41.288C328.26 41.288 327.348 40.9253 326.729 40.2C326.121 39.4746 325.817 38.456 325.817 37.144C325.817 35.7893 326.137 34.7386 326.777 33.992C327.417 33.2346 328.366 32.856 329.625 32.856C330.084 32.856 330.478 32.904 330.809 33C331.15 33.0853 331.561 33.2346 332.041 33.448L332.153 33.032H333.561ZM329.481 39.992C329.95 39.992 330.361 39.9333 330.713 39.816C331.065 39.6986 331.428 39.512 331.801 39.256V34.424C331.46 34.3066 331.134 34.2266 330.825 34.184C330.526 34.1306 330.18 34.104 329.785 34.104C328.953 34.104 328.334 34.3706 327.929 34.904C327.534 35.4373 327.337 36.1786 327.337 37.128C327.337 39.0373 328.052 39.992 329.481 39.992Z" fill="white"/>
<circle cx="364" cy="37.6" r="20" fill="#2A2929"/>
<path d="M362.624 41.592C361.547 41.592 360.629 41.352 359.872 40.872C359.125 40.392 358.56 39.72 358.176 38.856C357.803 37.992 357.616 36.984 357.616 35.832C357.616 34.68 357.803 33.672 358.176 32.808C358.56 31.944 359.125 31.272 359.872 30.792C360.629 30.312 361.547 30.072 362.624 30.072C363.211 30.072 363.776 30.1466 364.32 30.296C364.864 30.4346 365.36 30.6426 365.808 30.92V32.52H365.744C365.392 32.1786 364.949 31.9066 364.416 31.704C363.883 31.4906 363.301 31.384 362.672 31.384C361.456 31.384 360.56 31.7786 359.984 32.568C359.419 33.3573 359.136 34.4453 359.136 35.832C359.136 37.2293 359.419 38.3226 359.984 39.112C360.56 39.9013 361.451 40.296 362.656 40.296C363.264 40.296 363.835 40.1946 364.368 39.992C364.912 39.7893 365.371 39.5066 365.744 39.144H365.808V40.744C365.36 41.0213 364.864 41.2346 364.32 41.384C363.776 41.5226 363.211 41.592 362.624 41.592ZM369.052 29.336H370.46V41.4H369.052V29.336Z" fill="white"/>
<path d="M262.064 37.8C262.224 37.4587 262.379 37.16 262.528 36.904C262.688 36.648 262.843 36.4347 262.992 36.264H253.664V35.592H262.992C262.843 35.4107 262.688 35.192 262.528 34.936C262.379 34.68 262.224 34.3867 262.064 34.056H262.624C263.296 34.8347 264 35.4107 264.736 35.784V36.072C264 36.4347 263.296 37.0107 262.624 37.8H262.064Z" fill="white"/>
<circle cx="38.4" cy="37.6" r="20" fill="#2A2929"/>
<path d="M35.0772 38.456H29.7172L28.5812 41.4H27.1732L31.4612 30.264H33.4132L37.7012 41.4H36.2132L35.0772 38.456ZM34.6132 37.256L32.4052 31.496L30.1812 37.256H34.6132ZM47.1609 33.032L46.8089 34.888V40.856C46.8089 42.264 46.4836 43.3573 45.8329 44.136C45.1823 44.9146 44.2169 45.304 42.9369 45.304C42.2223 45.304 41.6356 45.2346 41.1769 45.096C40.7183 44.9573 40.2436 44.68 39.7529 44.264V42.84C40.2756 43.2773 40.7663 43.576 41.2249 43.736C41.6836 43.9066 42.2543 43.992 42.9369 43.992C43.7583 43.992 44.3716 43.7306 44.7769 43.208C45.1929 42.696 45.4009 41.976 45.4009 41.048V40.632C45.0489 40.8666 44.6916 41.0373 44.3289 41.144C43.9769 41.24 43.5556 41.288 43.0649 41.288C41.8596 41.288 40.9476 40.9253 40.3289 40.2C39.7209 39.4746 39.4169 38.456 39.4169 37.144C39.4169 35.7893 39.7369 34.7386 40.3769 33.992C41.0169 33.2346 41.9663 32.856 43.2249 32.856C43.6836 32.856 44.0783 32.904 44.4089 33C44.7503 33.0853 45.1609 33.2346 45.6409 33.448L45.7529 33.032H47.1609ZM43.0809 39.992C43.5503 39.992 43.9609 39.9333 44.3129 39.816C44.6649 39.6986 45.0276 39.512 45.4009 39.256V34.424C45.0596 34.3066 44.7343 34.2266 44.4249 34.184C44.1263 34.1306 43.7796 34.104 43.3849 34.104C42.5529 34.104 41.9343 34.3706 41.5289 34.904C41.1343 35.4373 40.9369 36.1786 40.9369 37.128C40.9369 39.0373 41.6516 39.992 43.0809 39.992Z" fill="white"/>
<path d="M8.656 40.072V41.4H1.264V40.072H4.56V32.072L2.32 33.224H2.256L1.968 32.312V32.248L4.912 30.264H5.968V40.072H8.656Z" fill="white"/>
<circle cx="523.2" cy="56.8" r="12" fill="#A5D8FF"/>
<path d="M522.901 59.5152C522.254 59.5152 521.701 59.3712 521.24 59.0832C520.786 58.7952 520.437 58.392 520.194 57.8736C519.957 57.3552 519.838 56.7504 519.838 56.0592C519.838 55.368 519.957 54.7632 520.194 54.2448C520.437 53.7264 520.786 53.3232 521.24 53.0352C521.701 52.7472 522.254 52.6032 522.901 52.6032C523.547 52.6032 524.098 52.7472 524.552 53.0352C525.013 53.3232 525.362 53.7264 525.598 54.2448C525.842 54.7632 525.963 55.368 525.963 56.0592C525.963 56.7504 525.842 57.3552 525.598 57.8736C525.362 58.392 525.013 58.7952 524.552 59.0832C524.098 59.3712 523.547 59.5152 522.901 59.5152ZM522.901 58.7472C523.618 58.7472 524.155 58.5072 524.514 58.0272C524.872 57.5408 525.051 56.8848 525.051 56.0592C525.051 55.2336 524.872 54.5808 524.514 54.1008C524.155 53.6144 523.618 53.3712 522.901 53.3712C522.184 53.3712 521.646 53.6144 521.288 54.1008C520.93 54.5808 520.75 55.2336 520.75 56.0592C520.75 56.8848 520.93 57.5408 521.288 58.0272C521.646 58.5072 522.184 58.7472 522.901 58.7472Z" fill="black"/>
<circle cx="504" cy="12" r="12" fill="#A5D8FF"/>
<path d="M503.701 14.7152C503.054 14.7152 502.501 14.5712 502.04 14.2832C501.586 13.9952 501.237 13.592 500.994 13.0736C500.757 12.5552 500.638 11.9504 500.638 11.2592C500.638 10.568 500.757 9.96318 500.994 9.44478C501.237 8.92638 501.586 8.52317 502.04 8.23517C502.501 7.94718 503.054 7.80318 503.701 7.80318C504.347 7.80318 504.898 7.94718 505.352 8.23517C505.813 8.52317 506.162 8.92638 506.398 9.44478C506.642 9.96318 506.763 10.568 506.763 11.2592C506.763 11.9504 506.642 12.5552 506.398 13.0736C506.162 13.592 505.813 13.9952 505.352 14.2832C504.898 14.5712 504.347 14.7152 503.701 14.7152ZM503.701 13.9472C504.418 13.9472 504.955 13.7072 505.314 13.2272C505.672 12.7408 505.851 12.0848 505.851 11.2592C505.851 10.4336 505.672 9.78078 505.314 9.30077C504.955 8.81438 504.418 8.57118 503.701 8.57118C502.984 8.57118 502.446 8.81438 502.088 9.30077C501.73 9.78078 501.55 10.4336 501.55 11.2592C501.55 12.0848 501.73 12.7408 502.088 13.2272C502.446 13.7072 502.984 13.9472 503.701 13.9472Z" fill="black"/>
<circle cx="484.8" cy="56.8" r="12" fill="#A5D8FF"/>
<path d="M484.501 59.5152C483.854 59.5152 483.301 59.3712 482.84 59.0832C482.386 58.7952 482.037 58.392 481.794 57.8736C481.557 57.3552 481.438 56.7504 481.438 56.0592C481.438 55.368 481.557 54.7632 481.794 54.2448C482.037 53.7264 482.386 53.3232 482.84 53.0352C483.301 52.7472 483.854 52.6032 484.501 52.6032C485.147 52.6032 485.698 52.7472 486.152 53.0352C486.613 53.3232 486.962 53.7264 487.198 54.2448C487.442 54.7632 487.563 55.368 487.563 56.0592C487.563 56.7504 487.442 57.3552 487.198 57.8736C486.962 58.392 486.613 58.7952 486.152 59.0832C485.698 59.3712 485.147 59.5152 484.501 59.5152ZM484.501 58.7472C485.218 58.7472 485.755 58.5072 486.114 58.0272C486.472 57.5408 486.651 56.8848 486.651 56.0592C486.651 55.2336 486.472 54.5808 486.114 54.1008C485.755 53.6144 485.218 53.3712 484.501 53.3712C483.784 53.3712 483.246 53.6144 482.888 54.1008C482.53 54.5808 482.35 55.2336 482.35 56.0592C482.35 56.8848 482.53 57.5408 482.888 58.0272C483.246 58.5072 483.784 58.7472 484.501 58.7472Z" fill="black"/>
<circle cx="504" cy="37.6" r="20" fill="#2A2929"/>
<path d="M507.702 30.264V41.4H506.294L500.31 32.808V41.4H498.902V30.264H500.31L506.294 38.856V30.264H507.702Z" fill="white"/>
<circle cx="96.8" cy="56.8" r="12" fill="#A5D8FF"/>
<path d="M96.5008 59.5152C95.8544 59.5152 95.3008 59.3712 94.84 59.0832C94.3856 58.7952 94.0368 58.392 93.7936 57.8736C93.5568 57.3552 93.4384 56.7504 93.4384 56.0592C93.4384 55.368 93.5568 54.7632 93.7936 54.2448C94.0368 53.7264 94.3856 53.3232 94.84 53.0352C95.3008 52.7472 95.8544 52.6032 96.5008 52.6032C97.1472 52.6032 97.6976 52.7472 98.152 53.0352C98.6128 53.3232 98.9616 53.7264 99.1984 54.2448C99.4416 54.7632 99.5632 55.368 99.5632 56.0592C99.5632 56.7504 99.4416 57.3552 99.1984 57.8736C98.9616 58.392 98.6128 58.7952 98.152 59.0832C97.6976 59.3712 97.1472 59.5152 96.5008 59.5152ZM96.5008 58.7472C97.2176 58.7472 97.7552 58.5072 98.1136 58.0272C98.472 57.5408 98.6512 56.8848 98.6512 56.0592C98.6512 55.2336 98.472 54.5808 98.1136 54.1008C97.7552 53.6144 97.2176 53.3712 96.5008 53.3712C95.784 53.3712 95.2464 53.6144 94.888 54.1008C94.5296 54.5808 94.3504 55.2336 94.3504 56.0592C94.3504 56.8848 94.5296 57.5408 94.888 58.0272C95.2464 58.5072 95.784 58.7472 96.5008 58.7472Z" fill="black"/>
<circle cx="77.6" cy="12" r="12" fill="#A5D8FF"/>
<path d="M77.3007 14.7152C76.6543 14.7152 76.1007 14.5712 75.6399 14.2832C75.1855 13.9952 74.8367 13.592 74.5935 13.0736C74.3567 12.5552 74.2383 11.9504 74.2383 11.2592C74.2383 10.568 74.3567 9.96318 74.5935 9.44478C74.8367 8.92638 75.1855 8.52317 75.6399 8.23517C76.1007 7.94718 76.6543 7.80318 77.3007 7.80318C77.9471 7.80318 78.4975 7.94718 78.9519 8.23517C79.4127 8.52317 79.7615 8.92638 79.9983 9.44478C80.2415 9.96318 80.3631 10.568 80.3631 11.2592C80.3631 11.9504 80.2415 12.5552 79.9983 13.0736C79.7615 13.592 79.4127 13.9952 78.9519 14.2832C78.4975 14.5712 77.9471 14.7152 77.3007 14.7152ZM77.3007 13.9472C78.0175 13.9472 78.5551 13.7072 78.9135 13.2272C79.2719 12.7408 79.4511 12.0848 79.4511 11.2592C79.4511 10.4336 79.2719 9.78078 78.9135 9.30077C78.5551 8.81438 78.0175 8.57118 77.3007 8.57118C76.5839 8.57118 76.0463 8.81438 75.6879 9.30077C75.3295 9.78078 75.1503 10.4336 75.1503 11.2592C75.1503 12.0848 75.3295 12.7408 75.6879 13.2272C76.0463 13.7072 76.5839 13.9472 77.3007 13.9472Z" fill="black"/>
<circle cx="58.4" cy="56.8" r="12" fill="#A5D8FF"/>
<path d="M58.1007 59.5152C57.4543 59.5152 56.9007 59.3712 56.4399 59.0832C55.9855 58.7952 55.6367 58.392 55.3935 57.8736C55.1567 57.3552 55.0383 56.7504 55.0383 56.0592C55.0383 55.368 55.1567 54.7632 55.3935 54.2448C55.6367 53.7264 55.9855 53.3232 56.4399 53.0352C56.9007 52.7472 57.4543 52.6032 58.1007 52.6032C58.7471 52.6032 59.2975 52.7472 59.7519 53.0352C60.2127 53.3232 60.5615 53.7264 60.7983 54.2448C61.0415 54.7632 61.1631 55.368 61.1631 56.0592C61.1631 56.7504 61.0415 57.3552 60.7983 57.8736C60.5615 58.392 60.2127 58.7952 59.7519 59.0832C59.2975 59.3712 58.7471 59.5152 58.1007 59.5152ZM58.1007 58.7472C58.8175 58.7472 59.3551 58.5072 59.7135 58.0272C60.0719 57.5408 60.2511 56.8848 60.2511 56.0592C60.2511 55.2336 60.0719 54.5808 59.7135 54.1008C59.3551 53.6144 58.8175 53.3712 58.1007 53.3712C57.3839 53.3712 56.8463 53.6144 56.4879 54.1008C56.1295 54.5808 55.9503 55.2336 55.9503 56.0592C55.9503 56.8848 56.1295 57.5408 56.4879 58.0272C56.8463 58.5072 57.3839 58.7472 58.1007 58.7472Z" fill="black"/>
<circle cx="77.6" cy="37.6" r="20" fill="#2A2929"/>
<path d="M81.3016 30.264V41.4H79.8936L73.9096 32.808V41.4H72.5016V30.264H73.9096L79.8936 38.856V30.264H81.3016Z" fill="white"/>
</svg>
