<svg width="446" height="40" viewBox="0 0 446 40" fill="none" xmlns="http://www.w3.org/2000/svg">
<path d="M81.248 18.872H78.16V22.2H76.944V18.872H73.856V17.656H76.944V14.328H78.16V17.656H81.248V18.872Z" fill="white"/>
<path d="M8.656 22.472V23.8H1.264V22.472H4.56V14.472L2.32 15.624H2.256L1.968 14.712V14.648L4.912 12.664H5.968V22.472H8.656Z" fill="white"/>
<path d="M108.656 22.472V23.8H101.264V22.472H104.56V14.472L102.32 15.624H102.256L101.968 14.712V14.648L104.912 12.664H105.968V22.472H108.656Z" fill="white"/>
<circle cx="139.2" cy="20" r="20" fill="#2A2929"/>
<circle cx="39.2" cy="20" r="20" fill="#2A2929"/>
<path d="M39.0224 18.664L37.4064 20.536V23.8H35.9984V12.664H37.4064V18.488L42.4304 12.664H44.1584L40.0144 17.496L44.5104 23.8H42.7024L39.0224 18.664Z" fill="white"/>
<path d="M139.261 12.664V23.8H137.853L131.869 15.208V23.8H130.461V12.664H131.869L137.853 21.256V12.664H139.261ZM148.058 23.8L147.834 22.6C147.418 23.0587 146.964 23.4053 146.474 23.64C145.994 23.8747 145.45 23.992 144.842 23.992C144.084 23.992 143.471 23.7787 143.002 23.352C142.532 22.9147 142.298 22.3387 142.298 21.624C142.298 20.696 142.671 20.0133 143.418 19.576C144.164 19.1387 145.124 18.92 146.298 18.92C146.724 18.92 147.194 18.9467 147.706 19V18.424C147.706 17.848 147.546 17.3893 147.226 17.048C146.916 16.696 146.511 16.52 146.01 16.52C145.412 16.52 144.868 16.6 144.378 16.76C143.898 16.92 143.402 17.1707 142.89 17.512V16.152C143.391 15.8213 143.903 15.592 144.426 15.464C144.948 15.3253 145.546 15.256 146.218 15.256C147.071 15.256 147.764 15.528 148.298 16.072C148.842 16.616 149.114 17.336 149.114 18.232V21.944L149.466 23.8H148.058ZM145.13 22.808C145.642 22.808 146.1 22.7013 146.506 22.488C146.911 22.2747 147.311 21.9653 147.706 21.56V19.992H146.234C144.623 19.992 143.818 20.5093 143.818 21.544C143.818 21.928 143.94 22.2373 144.186 22.472C144.431 22.696 144.746 22.808 145.13 22.808Z" fill="white"/>
<circle cx="179.2" cy="20" r="20" fill="#2A2929"/>
<path d="M177.824 23.992C176.747 23.992 175.829 23.752 175.072 23.272C174.325 22.792 173.76 22.12 173.376 21.256C173.003 20.392 172.816 19.384 172.816 18.232C172.816 17.08 173.003 16.072 173.376 15.208C173.76 14.344 174.325 13.672 175.072 13.192C175.829 12.712 176.747 12.472 177.824 12.472C178.411 12.472 178.976 12.5467 179.52 12.696C180.064 12.8347 180.56 13.0427 181.008 13.32V14.92H180.944C180.592 14.5787 180.149 14.3067 179.616 14.104C179.083 13.8907 178.501 13.784 177.872 13.784C176.656 13.784 175.76 14.1787 175.184 14.968C174.619 15.7573 174.336 16.8453 174.336 18.232C174.336 19.6293 174.619 20.7227 175.184 21.512C175.76 22.3013 176.651 22.696 177.856 22.696C178.464 22.696 179.035 22.5947 179.568 22.392C180.112 22.1893 180.571 21.9067 180.944 21.544H181.008V23.144C180.56 23.4213 180.064 23.6347 179.52 23.784C178.976 23.9227 178.411 23.992 177.824 23.992ZM184.252 11.736H185.66V23.8H184.252V11.736Z" fill="white"/>
<path d="M370.048 18.872H366.96V22.2H365.744V18.872H362.656V17.656H365.744V14.328H366.96V17.656H370.048V18.872Z" fill="white"/>
<path d="M395.056 22.472V23.8H387.664V22.472H390.96V14.472L388.72 15.624H388.656L388.368 14.712V14.648L391.312 12.664H392.368V22.472H395.056Z" fill="white"/>
<circle cx="425.6" cy="20" r="20" fill="#2A2929"/>
<path d="M425.661 12.664V23.8H424.253L418.269 15.208V23.8H416.861V12.664H418.269L424.253 21.256V12.664H425.661ZM434.458 23.8L434.234 22.6C433.818 23.0587 433.364 23.4053 432.874 23.64C432.394 23.8747 431.85 23.992 431.242 23.992C430.484 23.992 429.871 23.7787 429.402 23.352C428.932 22.9147 428.698 22.3387 428.698 21.624C428.698 20.696 429.071 20.0133 429.818 19.576C430.564 19.1387 431.524 18.92 432.698 18.92C433.124 18.92 433.594 18.9467 434.106 19V18.424C434.106 17.848 433.946 17.3893 433.626 17.048C433.316 16.696 432.911 16.52 432.41 16.52C431.812 16.52 431.268 16.6 430.778 16.76C430.298 16.92 429.802 17.1707 429.29 17.512V16.152C429.791 15.8213 430.303 15.592 430.826 15.464C431.348 15.3253 431.946 15.256 432.618 15.256C433.471 15.256 434.164 15.528 434.698 16.072C435.242 16.616 435.514 17.336 435.514 18.232V21.944L435.866 23.8H434.458ZM431.53 22.808C432.042 22.808 432.5 22.7013 432.906 22.488C433.311 22.2747 433.711 21.9653 434.106 21.56V19.992H432.634C431.023 19.992 430.218 20.5093 430.218 21.544C430.218 21.928 430.34 22.2373 430.586 22.472C430.831 22.696 431.146 22.808 431.53 22.808Z" fill="white"/>
<path d="M255.056 22.472V23.8H247.664V22.472H250.96V14.472L248.72 15.624H248.656L248.368 14.712V14.648L251.312 12.664H252.368V22.472H255.056Z" fill="white"/>
<circle cx="285.6" cy="20" r="20" fill="#2A2929"/>
<path d="M285.422 18.664L283.806 20.536V23.8H282.398V12.664H283.806V18.488L288.83 12.664H290.558L286.414 17.496L290.91 23.8H289.102L285.422 18.664Z" fill="white"/>
<circle cx="325.6" cy="20" r="20" fill="#2A2929"/>
<path d="M324.224 23.992C323.147 23.992 322.229 23.752 321.472 23.272C320.725 22.792 320.16 22.12 319.776 21.256C319.403 20.392 319.216 19.384 319.216 18.232C319.216 17.08 319.403 16.072 319.776 15.208C320.16 14.344 320.725 13.672 321.472 13.192C322.229 12.712 323.147 12.472 324.224 12.472C324.811 12.472 325.376 12.5467 325.92 12.696C326.464 12.8347 326.96 13.0427 327.408 13.32V14.92H327.344C326.992 14.5787 326.549 14.3067 326.016 14.104C325.483 13.8907 324.901 13.784 324.272 13.784C323.056 13.784 322.16 14.1787 321.584 14.968C321.019 15.7573 320.736 16.8453 320.736 18.232C320.736 19.6293 321.019 20.7227 321.584 21.512C322.16 22.3013 323.051 22.696 324.256 22.696C324.864 22.696 325.435 22.5947 325.968 22.392C326.512 22.1893 326.971 21.9067 327.344 21.544H327.408V23.144C326.96 23.4213 326.464 23.6347 325.92 23.784C325.376 23.9227 324.811 23.992 324.224 23.992ZM330.652 11.736H332.06V23.8H330.652V11.736Z" fill="white"/>
<path d="M223.664 20.2C223.824 19.8587 223.979 19.56 224.128 19.304C224.288 19.048 224.443 18.8347 224.592 18.664H215.264V17.992H224.592C224.443 17.8107 224.288 17.592 224.128 17.336C223.979 17.08 223.824 16.7867 223.664 16.456H224.224C224.896 17.2347 225.6 17.8107 226.336 18.184V18.472C225.6 18.8347 224.896 19.4107 224.224 20.2H223.664Z" fill="white"/>
</svg>
