<svg width="292" height="40" viewBox="0 0 292 40" fill="none" xmlns="http://www.w3.org/2000/svg">
<circle cx="39.2" cy="20" r="20" fill="#2A2929"/>
<path d="M39.6662 23.992C38.5889 23.992 37.6715 23.752 36.9142 23.272C36.1675 22.792 35.6022 22.12 35.2182 21.256C34.8449 20.392 34.6582 19.384 34.6582 18.232C34.6582 17.08 34.8449 16.072 35.2182 15.208C35.6022 14.344 36.1675 13.672 36.9142 13.192C37.6715 12.712 38.5889 12.472 39.6662 12.472C40.2529 12.472 40.8182 12.5467 41.3622 12.696C41.9062 12.8347 42.4022 13.0427 42.8502 13.32V14.92H42.7862C42.4342 14.5787 41.9915 14.3067 41.4582 14.104C40.9249 13.8907 40.3435 13.784 39.7142 13.784C38.4982 13.784 37.6022 14.1787 37.0262 14.968C36.4609 15.7573 36.1782 16.8453 36.1782 18.232C36.1782 19.6293 36.4609 20.7227 37.0262 21.512C37.6022 22.3013 38.4929 22.696 39.6982 22.696C40.3062 22.696 40.8769 22.5947 41.4102 22.392C41.9542 22.1893 42.4129 21.9067 42.7862 21.544H42.8502V23.144C42.4022 23.4213 41.9062 23.6347 41.3622 23.784C40.8182 23.9227 40.2529 23.992 39.6662 23.992Z" fill="white"/>
<path d="M8.656 22.472V23.8H1.264V22.472H4.56V14.472L2.32 15.624H2.256L1.968 14.712V14.648L4.912 12.664H5.968V22.472H8.656Z" fill="white"/>
<path d="M81.248 18.872H78.16V22.2H76.944V18.872H73.856V17.656H76.944V14.328H78.16V17.656H81.248V18.872Z" fill="white"/>
<circle cx="134.4" cy="20" r="12" fill="#A5D8FF"/>
<path d="M134.101 22.7152C133.454 22.7152 132.901 22.5712 132.44 22.2832C131.986 21.9952 131.637 21.592 131.394 21.0736C131.157 20.5552 131.038 19.9504 131.038 19.2592C131.038 18.568 131.157 17.9632 131.394 17.4448C131.637 16.9264 131.986 16.5232 132.44 16.2352C132.901 15.9472 133.454 15.8032 134.101 15.8032C134.747 15.8032 135.298 15.9472 135.752 16.2352C136.213 16.5232 136.562 16.9264 136.798 17.4448C137.042 17.9632 137.163 18.568 137.163 19.2592C137.163 19.9504 137.042 20.5552 136.798 21.0736C136.562 21.592 136.213 21.9952 135.752 22.2832C135.298 22.5712 134.747 22.7152 134.101 22.7152ZM134.101 21.9472C134.818 21.9472 135.355 21.7072 135.714 21.2272C136.072 20.7408 136.251 20.0848 136.251 19.2592C136.251 18.4336 136.072 17.7808 135.714 17.3008C135.355 16.8144 134.818 16.5712 134.101 16.5712C133.384 16.5712 132.846 16.8144 132.488 17.3008C132.13 17.7808 131.95 18.4336 131.95 19.2592C131.95 20.0848 132.13 20.7408 132.488 21.2272C132.846 21.7072 133.384 21.9472 134.101 21.9472Z" fill="black"/>
<path d="M103.856 22.456V23.8H96.464V22.728L100.464 18.456C101.083 17.7947 101.504 17.272 101.728 16.888C101.952 16.4933 102.064 16.0987 102.064 15.704C102.064 15.0853 101.856 14.6107 101.44 14.28C101.024 13.9387 100.437 13.768 99.68 13.768C98.656 13.768 97.7013 14.0667 96.816 14.664V13.256C97.7013 12.7333 98.6773 12.472 99.744 12.472C100.501 12.472 101.163 12.6 101.728 12.856C102.304 13.1013 102.747 13.4533 103.056 13.912C103.365 14.3707 103.52 14.904 103.52 15.512C103.52 16.0773 103.381 16.648 103.104 17.224C102.837 17.8 102.437 18.36 101.904 18.904L98.464 22.456H103.856Z" fill="white"/>
<path d="M174.064 20.2C174.224 19.8587 174.379 19.56 174.528 19.304C174.688 19.048 174.843 18.8347 174.992 18.664H165.664V17.992H174.992C174.843 17.8107 174.688 17.592 174.528 17.336C174.379 17.08 174.224 16.7867 174.064 16.456H174.624C175.296 17.2347 176 17.8107 176.736 18.184V18.472C176 18.8347 175.296 19.4107 174.624 20.2H174.064Z" fill="white"/>
<path d="M200.656 22.472V23.8H193.264V22.472H196.56V14.472L194.32 15.624H194.256L193.968 14.712V14.648L196.912 12.664H197.968V22.472H200.656Z" fill="white"/>
<circle cx="279.2" cy="20" r="12" fill="#A5D8FF"/>
<path d="M278.901 22.7152C278.254 22.7152 277.701 22.5712 277.24 22.2832C276.786 21.9952 276.437 21.592 276.194 21.0736C275.957 20.5552 275.838 19.9504 275.838 19.2592C275.838 18.568 275.957 17.9632 276.194 17.4448C276.437 16.9264 276.786 16.5232 277.24 16.2352C277.701 15.9472 278.254 15.8032 278.901 15.8032C279.547 15.8032 280.098 15.9472 280.552 16.2352C281.013 16.5232 281.362 16.9264 281.598 17.4448C281.842 17.9632 281.963 18.568 281.963 19.2592C281.963 19.9504 281.842 20.5552 281.598 21.0736C281.362 21.592 281.013 21.9952 280.552 22.2832C280.098 22.5712 279.547 22.7152 278.901 22.7152ZM278.901 21.9472C279.618 21.9472 280.155 21.7072 280.514 21.2272C280.872 20.7408 281.051 20.0848 281.051 19.2592C281.051 18.4336 280.872 17.7808 280.514 17.3008C280.155 16.8144 279.618 16.5712 278.901 16.5712C278.184 16.5712 277.646 16.8144 277.288 17.3008C276.93 17.7808 276.75 18.4336 276.75 19.2592C276.75 20.0848 276.93 20.7408 277.288 21.2272C277.646 21.7072 278.184 21.9472 278.901 21.9472Z" fill="black"/>
<circle cx="223.2" cy="20" r="12" fill="#A5D8FF"/>
<path d="M222.901 22.7152C222.254 22.7152 221.701 22.5712 221.24 22.2832C220.786 21.9952 220.437 21.592 220.194 21.0736C219.957 20.5552 219.838 19.9504 219.838 19.2592C219.838 18.568 219.957 17.9632 220.194 17.4448C220.437 16.9264 220.786 16.5232 221.24 16.2352C221.701 15.9472 222.254 15.8032 222.901 15.8032C223.547 15.8032 224.098 15.9472 224.552 16.2352C225.013 16.5232 225.362 16.9264 225.598 17.4448C225.842 17.9632 225.963 18.568 225.963 19.2592C225.963 19.9504 225.842 20.5552 225.598 21.0736C225.362 21.592 225.013 21.9952 224.552 22.2832C224.098 22.5712 223.547 22.7152 222.901 22.7152ZM222.901 21.9472C223.618 21.9472 224.155 21.7072 224.514 21.2272C224.872 20.7408 225.051 20.0848 225.051 19.2592C225.051 18.4336 224.872 17.7808 224.514 17.3008C224.155 16.8144 223.618 16.5712 222.901 16.5712C222.184 16.5712 221.646 16.8144 221.288 17.3008C220.93 17.7808 220.75 18.4336 220.75 19.2592C220.75 20.0848 220.93 20.7408 221.288 21.2272C221.646 21.7072 222.184 21.9472 222.901 21.9472Z" fill="black"/>
<circle cx="251.2" cy="20" r="20" fill="#2A2929"/>
<path d="M251.666 23.992C250.589 23.992 249.672 23.752 248.914 23.272C248.168 22.792 247.602 22.12 247.218 21.256C246.845 20.392 246.658 19.384 246.658 18.232C246.658 17.08 246.845 16.072 247.218 15.208C247.602 14.344 248.168 13.672 248.914 13.192C249.672 12.712 250.589 12.472 251.666 12.472C252.253 12.472 252.818 12.5467 253.362 12.696C253.906 12.8347 254.402 13.0427 254.85 13.32V14.92H254.786C254.434 14.5787 253.992 14.3067 253.458 14.104C252.925 13.8907 252.344 13.784 251.714 13.784C250.498 13.784 249.602 14.1787 249.026 14.968C248.461 15.7573 248.178 16.8453 248.178 18.232C248.178 19.6293 248.461 20.7227 249.026 21.512C249.602 22.3013 250.493 22.696 251.698 22.696C252.306 22.696 252.877 22.5947 253.41 22.392C253.954 22.1893 254.413 21.9067 254.786 21.544H254.85V23.144C254.402 23.4213 253.906 23.6347 253.362 23.784C252.818 23.9227 252.253 23.992 251.666 23.992Z" fill="white"/>
</svg>
